Clive Nicoli (Adrien Brody) and Elsa Kast (Sarah Polley) are two young scientists who have been given the job of running a genetic laboratory at a large corporation to develop a protein using animal gene splicing from several different species. To speed up the process, they secretly take a chance and add human DNA to the experiment
 
http://www.starshare.ro/bitbucket/Splice.BRRip.H264.Feel-Free.mp4_snapshot_00.25.58_%5B2010.09.28_08.36.49%5D.jpg 
http://www.starshare.ro/bitbucket/Splice.BRRip.H264.Feel-Free.mp4_snapshot_01.18.49_%5B2010.09.28_08.36.07%5D.jpg 
http://www.starshare.ro/bitbucket/Splice.BRRip.H264.Feel-Free.mp4_snapshot_00.32.38_%5B2010.09.28_08.37.21%5D.jpg 
http://www.starshare.ro/bitbucket/Splice.BRRip.H264.Feel-Free.mp4_snapshot_01.13.08_%5B2010.09.28_08.35.54%5D.jpg


Genre:Horror | Sci-Fi | Thriller
Language: English  http://www.imdb.com/title/tt1017460/
Source:x264-REFiNED
Subtitles: ROMANA

General
Complete name :Splice.BRRip.H264.Feel-Free
Format : MPEG-4
Format profile : Base Media
Codec ID : isom
File size : 1.36 GiB
Duration : 1h 43mn
Overall bit rate : 1 869 Kbps
Video #1
ID : 1
Format : AVC
Format/Info : Advanced Video Codec
Format profile : Baseline@L5.1
Format settings, CABAC : No
Format settings, ReFrames : 1 frame
Codec ID : avc1
Codec ID/Info : Advanced Video Coding
Duration : 1h 43mn
Bit rate mode : Variable
Bit rate : 1 548 Kbps
Width : 652 pixels
Height : 352 pixels
Display aspect ratio : 1.852
Frame rate mode : Constant
Frame rate : 24.390 fps
Resolution : 24 bits
Colorimetry : 4:2:0
Scan type : Progressive
Bits/(Pixel*Frame) : 0.277
Stream size : 1.12 GiB (83%)
Audio #2
ID : 2
Format : AAC
Format/Info : Advanced Audio Codec
Format version : Version 4
Format profile : LC
Format settings, SBR : No
Codec ID : 40
Duration : 1h 43mn
Bit rate mode : Variable
Bit rate : 320 Kbps
Channel(s) : 6 channels
Channel positions : Front: L C R, Rear: L R, LFE
Sampling rate : 48.0 KHz
Resolution : 16 bits
Stream size : 235 MiB (17%)